<mxfile host="Electron" agent="Mozilla/5.0 (Windows NT 10.0; Win64; x64) AppleWebKit/537.36 (KHTML, like Gecko) draw.io/24.7.17 Chrome/128.0.6613.36 Electron/32.0.1 Safari/537.36" version="24.7.17">
  <diagram name="Page-1" id="Dzm7KrGVt5WEHozSuBk3">
    <mxGraphModel dx="875" dy="518" grid="1" gridSize="10" guides="1" tooltips="1" connect="1" arrows="1" fold="1" page="1" pageScale="1" pageWidth="1169" pageHeight="827" math="0" shadow="0">
      <root>
        <mxCell id="0" />
        <mxCell id="1" parent="0" />
        <mxCell id="lsFawcely_5AxnaPMuyo-10" value="&lt;font style=&quot;font-size: 14px;&quot;&gt;&lt;b&gt;ANGAJATI&lt;/b&gt;&lt;/font&gt;" style="whiteSpace=wrap;html=1;align=center;strokeWidth=2;" vertex="1" parent="1">
          <mxGeometry x="170" y="320" width="100" height="50" as="geometry" />
        </mxCell>
        <mxCell id="lsFawcely_5AxnaPMuyo-12" value="&lt;font style=&quot;font-size: 14px;&quot;&gt;&lt;b&gt;DEPARTAMENTE&lt;/b&gt;&lt;/font&gt;" style="whiteSpace=wrap;html=1;align=center;strokeWidth=2;" vertex="1" parent="1">
          <mxGeometry x="380" y="320" width="130" height="50" as="geometry" />
        </mxCell>
        <mxCell id="lsFawcely_5AxnaPMuyo-13" value="&lt;font style=&quot;font-size: 14px;&quot;&gt;&lt;b&gt;BILETE&lt;/b&gt;&lt;/font&gt;" style="whiteSpace=wrap;html=1;align=center;strokeWidth=2;" vertex="1" parent="1">
          <mxGeometry x="170" y="210" width="100" height="50" as="geometry" />
        </mxCell>
        <mxCell id="lsFawcely_5AxnaPMuyo-14" value="&lt;font style=&quot;font-size: 14px;&quot;&gt;&lt;b&gt;CLIENTI&lt;/b&gt;&lt;/font&gt;" style="whiteSpace=wrap;html=1;align=center;strokeWidth=2;" vertex="1" parent="1">
          <mxGeometry x="40" y="125" width="100" height="50" as="geometry" />
        </mxCell>
        <mxCell id="lsFawcely_5AxnaPMuyo-15" value="&lt;font style=&quot;font-size: 14px;&quot;&gt;&lt;b&gt;FILME&lt;/b&gt;&lt;/font&gt;" style="whiteSpace=wrap;html=1;align=center;strokeWidth=2;" vertex="1" parent="1">
          <mxGeometry x="300" y="130" width="100" height="45" as="geometry" />
        </mxCell>
        <mxCell id="lsFawcely_5AxnaPMuyo-17" value="&lt;font style=&quot;font-size: 14px;&quot;&gt;&lt;b&gt;SALI&lt;/b&gt;&lt;/font&gt;" style="whiteSpace=wrap;html=1;align=center;strokeWidth=2;" vertex="1" parent="1">
          <mxGeometry x="500" y="130" width="90" height="45" as="geometry" />
        </mxCell>
        <mxCell id="lsFawcely_5AxnaPMuyo-18" value="&lt;font style=&quot;font-size: 14px;&quot;&gt;&lt;b&gt;PROGRAM&lt;/b&gt;&lt;/font&gt;" style="whiteSpace=wrap;html=1;align=center;strokeWidth=2;" vertex="1" parent="1">
          <mxGeometry x="495" y="240" width="100" height="50" as="geometry" />
        </mxCell>
        <mxCell id="lsFawcely_5AxnaPMuyo-22" value="" style="endArrow=none;html=1;rounded=0;strokeWidth=2;" edge="1" parent="1">
          <mxGeometry relative="1" as="geometry">
            <mxPoint x="140" y="149.47" as="sourcePoint" />
            <mxPoint x="300" y="149.47" as="targetPoint" />
          </mxGeometry>
        </mxCell>
        <mxCell id="lsFawcely_5AxnaPMuyo-23" value="&lt;font style=&quot;font-size: 13px;&quot;&gt;M&lt;/font&gt;" style="resizable=0;html=1;whiteSpace=wrap;align=left;verticalAlign=bottom;" connectable="0" vertex="1" parent="lsFawcely_5AxnaPMuyo-22">
          <mxGeometry x="-1" relative="1" as="geometry">
            <mxPoint x="10" as="offset" />
          </mxGeometry>
        </mxCell>
        <mxCell id="lsFawcely_5AxnaPMuyo-24" value="&lt;font style=&quot;font-size: 13px;&quot;&gt;M&lt;/font&gt;" style="resizable=0;html=1;whiteSpace=wrap;align=right;verticalAlign=bottom;" connectable="0" vertex="1" parent="lsFawcely_5AxnaPMuyo-22">
          <mxGeometry x="1" relative="1" as="geometry">
            <mxPoint x="-10" as="offset" />
          </mxGeometry>
        </mxCell>
        <mxCell id="lsFawcely_5AxnaPMuyo-25" value="" style="endArrow=none;html=1;rounded=0;strokeWidth=2;" edge="1" parent="1">
          <mxGeometry relative="1" as="geometry">
            <mxPoint x="219.47" y="150" as="sourcePoint" />
            <mxPoint x="220" y="210" as="targetPoint" />
          </mxGeometry>
        </mxCell>
        <mxCell id="lsFawcely_5AxnaPMuyo-26" value="&lt;font style=&quot;font-size: 13px;&quot;&gt;&lt;span&gt;M&lt;/span&gt;&lt;/font&gt;" style="resizable=0;html=1;whiteSpace=wrap;align=right;verticalAlign=bottom;fontStyle=0" connectable="0" vertex="1" parent="lsFawcely_5AxnaPMuyo-25">
          <mxGeometry x="1" relative="1" as="geometry">
            <mxPoint x="-10" as="offset" />
          </mxGeometry>
        </mxCell>
        <mxCell id="lsFawcely_5AxnaPMuyo-29" value="" style="endArrow=none;html=1;rounded=0;entryX=0.5;entryY=0;entryDx=0;entryDy=0;strokeWidth=2;" edge="1" parent="1" target="lsFawcely_5AxnaPMuyo-10">
          <mxGeometry relative="1" as="geometry">
            <mxPoint x="220" y="260" as="sourcePoint" />
            <mxPoint x="220" y="310" as="targetPoint" />
          </mxGeometry>
        </mxCell>
        <mxCell id="lsFawcely_5AxnaPMuyo-30" value="M" style="resizable=0;html=1;whiteSpace=wrap;align=left;verticalAlign=bottom;" connectable="0" vertex="1" parent="lsFawcely_5AxnaPMuyo-29">
          <mxGeometry x="-1" relative="1" as="geometry">
            <mxPoint x="10" y="20" as="offset" />
          </mxGeometry>
        </mxCell>
        <mxCell id="lsFawcely_5AxnaPMuyo-31" value="1" style="resizable=0;html=1;whiteSpace=wrap;align=right;verticalAlign=bottom;" connectable="0" vertex="1" parent="lsFawcely_5AxnaPMuyo-29">
          <mxGeometry x="1" relative="1" as="geometry">
            <mxPoint x="20" as="offset" />
          </mxGeometry>
        </mxCell>
        <mxCell id="lsFawcely_5AxnaPMuyo-34" value="" style="endArrow=none;html=1;rounded=0;strokeWidth=2;" edge="1" parent="1">
          <mxGeometry relative="1" as="geometry">
            <mxPoint x="270" y="344.58" as="sourcePoint" />
            <mxPoint x="380" y="344.58" as="targetPoint" />
          </mxGeometry>
        </mxCell>
        <mxCell id="lsFawcely_5AxnaPMuyo-35" value="M" style="resizable=0;html=1;whiteSpace=wrap;align=left;verticalAlign=bottom;" connectable="0" vertex="1" parent="lsFawcely_5AxnaPMuyo-34">
          <mxGeometry x="-1" relative="1" as="geometry">
            <mxPoint x="10" y="25" as="offset" />
          </mxGeometry>
        </mxCell>
        <mxCell id="lsFawcely_5AxnaPMuyo-36" value="1" style="resizable=0;html=1;whiteSpace=wrap;align=right;verticalAlign=bottom;" connectable="0" vertex="1" parent="lsFawcely_5AxnaPMuyo-34">
          <mxGeometry x="1" relative="1" as="geometry">
            <mxPoint x="-10" y="25" as="offset" />
          </mxGeometry>
        </mxCell>
        <mxCell id="lsFawcely_5AxnaPMuyo-38" value="" style="endArrow=none;html=1;rounded=0;strokeWidth=2;" edge="1" parent="1">
          <mxGeometry relative="1" as="geometry">
            <mxPoint x="400" y="149.17" as="sourcePoint" />
            <mxPoint x="500" y="149.17" as="targetPoint" />
          </mxGeometry>
        </mxCell>
        <mxCell id="lsFawcely_5AxnaPMuyo-39" value="M" style="resizable=0;html=1;whiteSpace=wrap;align=left;verticalAlign=bottom;" connectable="0" vertex="1" parent="lsFawcely_5AxnaPMuyo-38">
          <mxGeometry x="-1" relative="1" as="geometry">
            <mxPoint x="10" y="25" as="offset" />
          </mxGeometry>
        </mxCell>
        <mxCell id="lsFawcely_5AxnaPMuyo-40" value="1" style="resizable=0;html=1;whiteSpace=wrap;align=right;verticalAlign=bottom;" connectable="0" vertex="1" parent="lsFawcely_5AxnaPMuyo-38">
          <mxGeometry x="1" relative="1" as="geometry">
            <mxPoint x="-10" y="25" as="offset" />
          </mxGeometry>
        </mxCell>
        <mxCell id="lsFawcely_5AxnaPMuyo-41" value="" style="endArrow=none;html=1;rounded=0;strokeWidth=2;exitX=0.5;exitY=0;exitDx=0;exitDy=0;" edge="1" parent="1">
          <mxGeometry relative="1" as="geometry">
            <mxPoint x="545" y="240" as="sourcePoint" />
            <mxPoint x="544.58" y="175" as="targetPoint" />
          </mxGeometry>
        </mxCell>
        <mxCell id="lsFawcely_5AxnaPMuyo-42" value="M" style="resizable=0;html=1;whiteSpace=wrap;align=left;verticalAlign=bottom;" connectable="0" vertex="1" parent="lsFawcely_5AxnaPMuyo-41">
          <mxGeometry x="-1" relative="1" as="geometry">
            <mxPoint x="-25" as="offset" />
          </mxGeometry>
        </mxCell>
        <mxCell id="lsFawcely_5AxnaPMuyo-43" value="1" style="resizable=0;html=1;whiteSpace=wrap;align=right;verticalAlign=bottom;" connectable="0" vertex="1" parent="lsFawcely_5AxnaPMuyo-41">
          <mxGeometry x="1" relative="1" as="geometry">
            <mxPoint x="-15" y="25" as="offset" />
          </mxGeometry>
        </mxCell>
        <mxCell id="lsFawcely_5AxnaPMuyo-44" value="&lt;font style=&quot;font-size: 13px;&quot;&gt;rezerva&lt;/font&gt;" style="text;html=1;align=center;verticalAlign=middle;resizable=0;points=[];autosize=1;strokeColor=none;fillColor=none;" vertex="1" parent="1">
          <mxGeometry x="185" y="120" width="70" height="30" as="geometry" />
        </mxCell>
        <mxCell id="lsFawcely_5AxnaPMuyo-45" value="&lt;font style=&quot;font-size: 13px;&quot;&gt;se_ocupa&lt;/font&gt;" style="text;html=1;align=center;verticalAlign=middle;resizable=0;points=[];autosize=1;strokeColor=none;fillColor=none;" vertex="1" parent="1">
          <mxGeometry x="135" y="270" width="80" height="30" as="geometry" />
        </mxCell>
        <mxCell id="lsFawcely_5AxnaPMuyo-46" value="&lt;font style=&quot;font-size: 13px;&quot;&gt;lucreaza&lt;/font&gt;" style="text;html=1;align=center;verticalAlign=middle;resizable=0;points=[];autosize=1;strokeColor=none;fillColor=none;" vertex="1" parent="1">
          <mxGeometry x="290" y="310" width="70" height="30" as="geometry" />
        </mxCell>
        <mxCell id="lsFawcely_5AxnaPMuyo-47" value="&lt;span style=&quot;font-size: 13px;&quot;&gt;se_difuzeaza&lt;/span&gt;" style="text;html=1;align=center;verticalAlign=middle;resizable=0;points=[];autosize=1;strokeColor=none;fillColor=none;" vertex="1" parent="1">
          <mxGeometry x="400" y="120" width="100" height="30" as="geometry" />
        </mxCell>
        <mxCell id="lsFawcely_5AxnaPMuyo-48" value="&lt;font style=&quot;font-size: 13px;&quot;&gt;au&lt;/font&gt;" style="text;html=1;align=center;verticalAlign=middle;resizable=0;points=[];autosize=1;strokeColor=none;fillColor=none;" vertex="1" parent="1">
          <mxGeometry x="550" y="190" width="40" height="30" as="geometry" />
        </mxCell>
      </root>
    </mxGraphModel>
  </diagram>
</mxfile>
